<svg id="Layer_1" data-name="Layer 1" xmlns="http://www.w3.org/2000/svg" viewBox="0 0 62.76 62.76"><defs><style>.cls-1{fill:#4051b5;}.cls-2{fill:#fff;}</style></defs><rect class="cls-1" width="62.76" height="62.76" rx="5.05"/><g id="Group_2" data-name="Group 2"><path id="Path_1" data-name="Path 1" class="cls-2" d="M124.63,145v5a18.27,18.27,0,0,1-17.51-17.52h5A13.25,13.25,0,0,0,124.63,145Z" transform="translate(-96.62 -96.62)"/><path id="Path_2" data-name="Path 2" class="cls-2" d="M124.63,113.53v5a13.24,13.24,0,0,0-12.5,12.5h-5a18.28,18.28,0,0,1,17.52-17.52Z" transform="translate(-96.62 -96.62)"/><path id="Path_3" data-name="Path 3" class="cls-2" d="M136.72,131.81A11.56,11.56,0,0,1,133.4,140a11.17,11.17,0,0,1-3.6,2.47,11.29,11.29,0,0,1-4.41.9.24.24,0,0,1-.21-.26.23.23,0,0,1,.21-.21,10.77,10.77,0,0,0,7.69-3.24,11.15,11.15,0,0,0,0-15.61,10.76,10.76,0,0,0-15.21-.17l-.16.17a10.88,10.88,0,0,0-2.33,3.51,11.12,11.12,0,0,0,2.83,12.58l0-.54,1.46,1.86-2.25-.64.62-.23A11.64,11.64,0,0,1,117,124.12c.14-.15.28-.31.43-.46a11.21,11.21,0,0,1,15.85-.18l.17.18a11.37,11.37,0,0,1,2.43,3.66A11.53,11.53,0,0,1,136.72,131.81Z" transform="translate(-96.62 -96.62)"/><path id="Path_4" data-name="Path 4" class="cls-2" d="M143.64,131.78c0,.26,0,.51,0,.76a18.26,18.26,0,0,1-17.51,17.51v-5a13.25,13.25,0,0,0,12.5-12.5c0-.25,0-.5,0-.75s0-.5,0-.75a13.27,13.27,0,0,0-12.5-12.5v-5A18.25,18.25,0,0,1,143.63,131C143.64,131.28,143.64,131.53,143.64,131.78Z" transform="translate(-96.62 -96.62)"/><path id="Path_5" data-name="Path 5" class="cls-2" d="M152.52,147.53l-3.34-3.82V145H138a18.14,18.14,0,0,1-5.49,3.6,30.94,30.94,0,0,1-6,1.4h22.69l0,1.31Z" transform="translate(-96.62 -96.62)"/><path id="Path_6" data-name="Path 6" class="cls-2" d="M152.8,114.29l-3.66,3.63-3.65-3.63h1.77A5.91,5.91,0,1,0,136,116.92a18.1,18.1,0,0,0-3.49-2l-.77-.31v-.14a9.67,9.67,0,1,1,19.33-.37v.14Z" transform="translate(-96.62 -96.62)"/><rect id="Rectangle_2" data-name="Rectangle 2" class="cls-2" x="6.58" y="48.39" width="21.45" height="5.01"/></g></svg>